<?xml version="1.0" standalone="no"?>
<!DOCTYPE svg PUBLIC "-//W3C//DTD SVG 20010904//EN"
 "http://www.w3.org/TR/2001/REC-SVG-20010904/DTD/svg10.dtd">
<svg version="1.0" xmlns="http://www.w3.org/2000/svg"
 width="300.000000pt" height="129.000000pt" viewBox="0 0 300.000000 129.000000"
 preserveAspectRatio="xMidYMid meet">
<metadata>
Created by potrace 1.10, written by Peter Selinger 2001-2011
</metadata>
<g transform="translate(0.000000,129.000000) scale(0.100000,-0.100000)"
fill="#990000" stroke="none">
<path d="M2034 1046 c-27 -19 -55 -41 -63 -49 -20 -25 -15 -81 15 -168 23 -63
26 -81 16 -88 -62 -38 -932 -44 -970 -7 -2 3 0 22 6 43 54 186 54 200 -8 240
-19 12 -42 29 -51 38 -22 22 -407 23 -415 1 -3 -8 -16 -17 -30 -20 -26 -7 -90
-59 -104 -86 -41 -76 -96 -412 -84 -518 6 -61 10 -71 48 -108 40 -40 133 -84
177 -84 11 0 39 -4 62 -10 121 -27 372 -64 557 -81 214 -19 692 -3 895 30 33
6 103 17 155 26 52 8 113 20 135 25 22 5 72 17 110 26 132 31 185 74 206 170
17 77 -6 255 -56 430 -36 128 -57 158 -125 184 -19 7 -42 19 -50 26 -11 8 -68
12 -196 12 l-182 0 -48 -32z m489 -39 c27 -15 44 -35 61 -71 45 -99 86 -308
86 -440 0 -72 -3 -87 -27 -123 -36 -56 -94 -84 -239 -113 -90 -18 -259 -50
-268 -50 -5 0 -6 42 -2 99 7 98 -3 220 -25 334 -9 44 -16 57 -28 55 -10 -2
-15 -12 -13 -23 21 -125 30 -201 24 -207 -14 -13 -293 -35 -547 -43 -150 -5
-414 9 -529 29 -70 12 -71 12 -69 41 2 36 18 139 28 178 7 25 5 28 -11 25 -12
-2 -21 -18 -29 -53 -23 -95 -35 -249 -28 -349 6 -92 5 -99 -11 -93 -10 4 -102
22 -206 42 -204 37 -255 56 -292 107 -21 31 -23 42 -22 163 0 131 7 180 47
335 17 69 28 91 59 122 20 20 54 42 76 47 21 6 122 10 223 10 201 -1 241 -10
266 -59 15 -29 11 -55 -24 -163 -17 -52 -22 -82 -16 -88 23 -23 161 -33 458
-33 233 0 342 4 439 16 70 9 131 19 134 23 3 3 -9 50 -27 103 -38 113 -37 146
2 176 26 19 46 22 215 26 218 7 244 5 295 -23z m-405 -579 c3 -16 -41 -28
-105 -28 -54 0 -42 28 15 35 26 4 52 8 57 10 17 6 30 -1 33 -17z m-1038 -9
c30 -5 171 -12 313 -15 192 -5 257 -10 257 -19 0 -29 -221 -27 -585 7 -118 11
-151 20 -139 40 7 10 31 8 154 -13z m880 -8 c0 -17 -13 -19 -144 -31 -92 -9
-131 -9 -139 -1 -18 18 0 24 101 31 151 11 182 11 182 1z m-795 -52 c158 -16
562 -15 695 2 118 14 240 18 240 7 1 -93 -2 -146 -8 -156 -6 -9 -79 -19 -228
-33 -272 -26 -586 -21 -837 11 -38 5 -71 11 -73 13 -3 2 -8 44 -11 92 l-6 88
54 -6 c30 -4 108 -12 174 -18z"/>
<path d="M2385 858 c-19 -17 -26 -34 -27 -62 -2 -53 30 -80 86 -73 46 6 73 31
82 74 14 69 -83 111 -141 61z m105 -18 c11 -11 20 -26 20 -34 0 -20 -47 -66
-67 -66 -33 0 -63 29 -63 60 0 54 71 79 110 40z"/>
<path d="M580 825 c-56 -32 -81 -65 -87 -115 -23 -173 236 -275 343 -135 81
107 -9 262 -159 272 -42 3 -61 -1 -97 -22z m110 0 c0 -3 -6 -14 -12 -26 -11
-17 -10 -22 7 -35 22 -17 35 -14 49 10 9 13 7 20 -8 32 -17 12 -18 14 -3 14
42 0 127 -107 127 -161 0 -21 -1 -21 -18 -6 -37 34 -84 4 -49 -30 13 -14 19
-14 32 -3 24 20 29 5 9 -25 -19 -29 -90 -65 -128 -65 -19 0 -22 4 -18 31 4 29
3 30 -24 27 -20 -2 -30 -10 -34 -26 -5 -23 -5 -23 -47 13 -47 40 -68 90 -59
139 7 37 57 89 101 104 32 11 75 15 75 7z"/>
<path d="M529 724 c-9 -11 -10 -20 -2 -32 14 -22 43 -22 57 1 9 15 7 21 -8 33
-25 18 -31 18 -47 -2z"/>
<path d="M2193 813 c-26 -5 -63 -53 -63 -80 1 -64 108 -95 154 -45 58 65 0
144 -91 125z m65 -29 c45 -32 16 -104 -43 -104 -25 0 -65 34 -65 55 0 20 47
65 68 65 10 0 28 -7 40 -16z"/>
<path d="M2448 663 c-56 -35 -57 -107 -1 -132 31 -14 46 -14 78 1 39 18 60 63
45 98 -20 47 -74 62 -122 33z m101 -35 c10 -16 9 -24 -4 -44 -25 -39 -59 -50
-90 -30 -40 26 -32 77 14 94 33 12 65 4 80 -20z"/>
<path d="M2214 622 c-36 -23 -59 -71 -50 -107 8 -31 60 -65 99 -65 87 0 138
93 84 155 -30 36 -91 43 -133 17z m110 -23 c67 -52 -13 -153 -95 -119 -54 23
-52 96 3 123 44 22 60 21 92 -4z"/>
</g>
</svg>
