<?xml version="1.0" encoding="UTF-8" standalone="no"?>
<svg
   xmlns:dc="http://purl.org/dc/elements/1.1/"
   xmlns:cc="http://creativecommons.org/ns#"
   xmlns:rdf="http://www.w3.org/1999/02/22-rdf-syntax-ns#"
   xmlns:svg="http://www.w3.org/2000/svg"
   xmlns="http://www.w3.org/2000/svg"
   viewBox="0 0 304 74.666664"
   height="74.666664"
   width="304"
   xml:space="preserve"
   id="svg2"
   version="1.1"><metadata
     id="metadata8"><rdf:RDF><cc:Work
         rdf:about=""><dc:format>image/svg+xml</dc:format><dc:type
           rdf:resource="http://purl.org/dc/dcmitype/StillImage" /></cc:Work></rdf:RDF></metadata><defs
     id="defs6"><clipPath
       id="clipPath18"
       clipPathUnits="userSpaceOnUse"><path
         id="path16"
         d="M 0,56 H 228 V 0 H 0 Z" /></clipPath></defs><g
     transform="matrix(1.3333333,0,0,-1.3333333,0,74.666667)"
     id="g10"><g
       id="g12"><g
         clip-path="url(#clipPath18)"
         id="g14"><g
           transform="translate(32.9517,16.8296)"
           id="g20"><path
             id="path22"
             style="fill:#2b2b2a;fill-opacity:1;fill-rule:evenodd;stroke:none"
             d="m 0,0 c -1.906,-1.125 -4.206,-1.813 -6.448,-1.813 -6.893,0 -12.517,5.625 -12.517,12.517 0,6.892 5.624,12.517 12.517,12.517 2.242,0 4.542,-0.681 6.448,-1.806 v 13.448 c -2.056,0.488 -4.306,0.882 -6.448,0.882 -13.792,0 -25.041,-11.249 -25.041,-25.041 0,-13.785 11.249,-25.034 25.041,-25.034 2.142,0 4.392,0.395 6.448,0.881 z" /></g><g
           transform="translate(32.9517,28.6011)"
           id="g24"><path
             id="path26"
             style="fill:#2b2b2a;fill-opacity:1;fill-rule:evenodd;stroke:none"
             d="m 0,0 h 10.532 l 9.379,9.372 H 0 Z" /></g><g
           transform="translate(52.8623,17.0942)"
           id="g28"><path
             id="path30"
             style="fill:#2b2b2a;fill-opacity:1;fill-rule:evenodd;stroke:none"
             d="M 0,0 -9.378,9.372 H -19.911 V 0 Z" /></g><g
           transform="translate(81.6802,47.4434)"
           id="g32"><path
             id="path34"
             style="fill:#2b2b2a;fill-opacity:1;fill-rule:evenodd;stroke:none"
             d="m 0,0 -0.375,-3.431 c -0.614,0.363 -1.252,0.639 -1.904,0.827 -0.663,0.175 -1.327,0.275 -2.028,0.275 -1.64,0 -2.943,-0.476 -3.906,-1.44 -0.977,-0.951 -1.465,-2.229 -1.465,-3.844 0,-1.615 0.501,-2.905 1.49,-3.868 0.989,-0.952 2.303,-1.44 3.956,-1.44 0.639,0 1.302,0.088 1.979,0.237 0.675,0.163 1.352,0.401 2.04,0.714 l 0.263,-3.681 c -0.789,-0.213 -1.565,-0.375 -2.354,-0.488 -0.788,-0.1 -1.577,-0.163 -2.379,-0.163 -2.98,0 -5.296,0.764 -6.961,2.291 -1.665,1.528 -2.504,3.669 -2.504,6.398 0,2.617 0.826,4.683 2.466,6.211 1.641,1.54 3.87,2.303 6.674,2.303 0.939,0 1.828,-0.075 2.679,-0.225 C -1.49,0.525 -0.713,0.3 0,0 m 53.901,-6.01 c 0.475,0.826 1.076,1.452 1.815,1.89 0.739,0.439 1.552,0.664 2.442,0.664 1.426,0 2.516,-0.463 3.267,-1.364 0.764,-0.914 1.14,-2.242 1.14,-3.982 v -7.112 H 58.47 v 6.248 c 0,0.939 -0.162,1.64 -0.475,2.091 -0.301,0.438 -0.789,0.663 -1.44,0.663 -0.677,0 -1.202,-0.288 -1.615,-0.851 -0.389,-0.576 -0.589,-1.34 -0.589,-2.316 v -5.835 h -4.144 v 6.248 c 0,0.939 -0.15,1.64 -0.451,2.091 -0.313,0.438 -0.801,0.663 -1.465,0.663 -0.664,0 -1.202,-0.288 -1.603,-0.851 -0.413,-0.576 -0.613,-1.352 -0.613,-2.316 v -5.835 H 41.956 V -3.756 H 45.7 v -2.179 c 0.463,0.789 1.051,1.415 1.79,1.841 0.726,0.426 1.528,0.638 2.416,0.638 0.927,0 1.741,-0.225 2.429,-0.664 0.689,-0.438 1.203,-1.064 1.566,-1.89 m -23.602,0 c 0.476,0.826 1.077,1.452 1.816,1.89 0.739,0.439 1.54,0.664 2.441,0.664 1.428,0 2.529,-0.463 3.281,-1.364 0.764,-0.914 1.139,-2.242 1.139,-3.982 v -7.112 H 34.87 v 6.248 c 0,0.939 -0.163,1.64 -0.476,2.091 -0.313,0.438 -0.789,0.663 -1.44,0.663 -0.676,0 -1.215,-0.288 -1.615,-0.851 -0.388,-0.576 -0.589,-1.34 -0.589,-2.316 v -5.835 h -4.144 v 6.248 c 0,0.939 -0.15,1.64 -0.463,2.091 -0.301,0.438 -0.789,0.663 -1.453,0.663 -0.663,0 -1.202,-0.288 -1.603,-0.851 -0.412,-0.576 -0.613,-1.352 -0.613,-2.316 v -5.835 h -4.119 v 12.158 h 3.731 v -2.179 c 0.476,0.789 1.064,1.415 1.79,1.841 0.739,0.426 1.541,0.638 2.417,0.638 0.939,0 1.753,-0.225 2.441,-0.664 0.689,-0.438 1.203,-1.064 1.565,-1.89 M 8.877,-16.227 c -2.191,0 -3.894,0.564 -5.133,1.703 -1.227,1.127 -1.841,2.692 -1.841,4.683 0,2.003 0.614,3.581 1.841,4.707 1.239,1.127 2.942,1.703 5.133,1.703 2.191,0 3.907,-0.576 5.146,-1.703 1.227,-1.126 1.853,-2.704 1.853,-4.707 0,-1.991 -0.626,-3.556 -1.853,-4.683 -1.239,-1.139 -2.955,-1.703 -5.146,-1.703 m 62.94,12.796 c 2.191,0 3.906,-0.576 5.146,-1.703 1.24,-1.126 1.853,-2.704 1.853,-4.707 0,-1.991 -0.613,-3.556 -1.853,-4.683 -1.24,-1.139 -2.955,-1.703 -5.146,-1.703 -2.191,0 -3.894,0.564 -5.12,1.703 -1.24,1.127 -1.854,2.692 -1.854,4.683 0,2.003 0.614,3.581 1.854,4.707 1.226,1.127 2.929,1.703 5.12,1.703 m 0,-9.841 c 0.802,0 1.44,0.313 1.929,0.939 0.475,0.626 0.712,1.465 0.712,2.517 0,1.051 -0.237,1.903 -0.712,2.529 -0.489,0.626 -1.127,0.939 -1.929,0.939 -0.776,0 -1.415,-0.313 -1.915,-0.952 -0.488,-0.626 -0.727,-1.465 -0.727,-2.516 0,-1.039 0.239,-1.866 0.727,-2.504 0.5,-0.626 1.139,-0.952 1.915,-0.952 m 15.776,9.653 c 0.287,-0.075 0.575,-0.187 0.838,-0.313 0.677,-0.338 1.253,-0.839 1.729,-1.502 v 7.249 h 4.169 v -17.729 h -3.744 v 2.429 c -0.462,-0.851 -1.077,-1.502 -1.828,-1.94 -0.363,-0.226 -0.751,-0.388 -1.164,-0.501 -0.438,-0.113 -0.902,-0.176 -1.402,-0.176 -1.615,0 -2.918,0.589 -3.919,1.766 -1.002,1.177 -1.49,2.742 -1.49,4.67 0,1.903 0.475,3.418 1.452,4.545 0.976,1.127 2.279,1.69 3.919,1.69 0.514,0 0.989,-0.063 1.44,-0.188 m 0,-9.39 c 0.788,0.013 1.402,0.301 1.865,0.864 0.451,0.576 0.676,1.39 0.676,2.404 0,1.001 -0.237,1.79 -0.713,2.379 -0.463,0.563 -1.064,0.851 -1.828,0.876 H 87.48 c -0.714,0 -1.302,-0.3 -1.753,-0.914 -0.463,-0.626 -0.688,-1.414 -0.688,-2.391 0,-0.989 0.225,-1.778 0.688,-2.354 0.451,-0.576 1.065,-0.864 1.841,-0.864 z m 34.293,9.441 -0.213,-3.594 c -0.174,0.063 -0.363,0.113 -0.563,0.15 -0.213,0.038 -0.463,0.051 -0.738,0.051 -0.99,0 -1.741,-0.313 -2.242,-0.952 -0.501,-0.639 -0.763,-1.578 -0.763,-2.817 v -5.184 h -4.17 v 12.158 h 3.731 v -2.317 c 0.413,0.889 0.927,1.566 1.54,1.991 0.614,0.426 1.327,0.651 2.166,0.651 0.213,0 0.601,-0.05 1.177,-0.125 z m -18.154,0.137 c 2.19,0 3.906,-0.576 5.133,-1.703 1.24,-1.126 1.853,-2.704 1.853,-4.707 0,-1.991 -0.613,-3.556 -1.853,-4.683 -1.227,-1.139 -2.943,-1.703 -5.133,-1.703 -2.191,0 -3.906,0.564 -5.134,1.703 -1.239,1.127 -1.852,2.692 -1.852,4.683 0,2.003 0.613,3.581 1.852,4.707 1.228,1.127 2.943,1.703 5.134,1.703 m 0,-9.841 c 0.788,0 1.439,0.313 1.915,0.939 0.488,0.626 0.727,1.465 0.727,2.517 0,1.051 -0.239,1.903 -0.727,2.529 -0.476,0.626 -1.127,0.939 -1.915,0.939 -0.789,0 -1.428,-0.313 -1.916,-0.952 -0.488,-0.626 -0.738,-1.465 -0.738,-2.516 0,-1.039 0.25,-1.866 0.738,-2.504 0.488,-0.626 1.127,-0.952 1.916,-0.952 m 25.504,4.658 h 2.441 c -0.075,0.826 -0.338,1.465 -0.776,1.928 -0.439,0.463 -1.002,0.701 -1.665,0.701 h -0.013 c -0.676,0 -1.215,-0.225 -1.652,-0.701 -0.426,-0.463 -0.701,-1.102 -0.789,-1.928 z m 0,-4.845 c 0.312,-0.063 0.663,-0.088 1.052,-0.088 0.6,0 1.252,0.088 1.927,0.25 0.677,0.175 1.366,0.426 2.091,0.764 v -2.98 c -0.688,-0.251 -1.389,-0.425 -2.128,-0.551 -0.726,-0.125 -1.503,-0.188 -2.303,-0.188 -0.213,0 -0.426,0.013 -0.639,0.013 -1.916,0.113 -3.431,0.688 -4.558,1.74 -1.239,1.177 -1.865,2.792 -1.865,4.883 0,1.891 0.575,3.393 1.728,4.508 1.151,1.114 2.704,1.677 4.657,1.677 h 0.038 c 1.953,-0.012 3.456,-0.588 4.519,-1.728 1.078,-1.139 1.616,-2.779 1.616,-4.895 v -1.014 h -6.135 -2.404 c 0.087,-0.789 0.425,-1.403 1.027,-1.828 0.375,-0.276 0.839,-0.463 1.377,-0.563 M 8.877,-6.348 C 8.088,-6.348 7.45,-6.661 6.961,-7.3 6.473,-7.926 6.235,-8.765 6.235,-9.816 c 0,-1.039 0.238,-1.866 0.726,-2.504 0.489,-0.626 1.127,-0.952 1.916,-0.952 0.801,0 1.44,0.313 1.928,0.939 0.476,0.626 0.714,1.465 0.714,2.517 0,1.051 -0.238,1.903 -0.714,2.529 -0.488,0.626 -1.127,0.939 -1.928,0.939" /></g><path
           id="path36"
           style="fill:#2b2b2a;fill-opacity:1;fill-rule:evenodd;stroke:none"
           d="m 226.292,26.335 h -168 v 1.233 h 168 z" /><g
           transform="translate(113.1602,11.6084)"
           id="g38"><path
             id="path40"
             style="fill:#2b2b2a;fill-opacity:1;fill-rule:nonzero;stroke:none"
             d="M 0,0 -2.865,6.826 -5.805,0 Z m 0.349,-0.922 h -6.54 l -1.146,-2.666 c -0.283,-0.655 -0.424,-1.145 -0.424,-1.47 0,-0.256 0.123,-0.483 0.368,-0.678 0.245,-0.196 0.774,-0.323 1.588,-0.38 v -0.461 h -5.319 v 0.461 c 0.706,0.125 1.163,0.286 1.37,0.485 0.424,0.4 0.893,1.209 1.408,2.43 l 5.942,13.902 h 0.436 L 3.912,-3.351 C 4.385,-4.48 4.815,-5.213 5.201,-5.55 5.587,-5.886 6.125,-6.075 6.814,-6.116 V -6.577 H 0.149 v 0.461 c 0.673,0.033 1.128,0.145 1.365,0.336 0.236,0.191 0.355,0.424 0.355,0.698 0,0.365 -0.166,0.942 -0.498,1.731 z" /></g><g
           transform="translate(123.2505,20.2656)"
           id="g42"><path
             id="path44"
             style="fill:#2b2b2a;fill-opacity:1;fill-rule:nonzero;stroke:none"
             d="m 0,0 4.111,2.006 h 0.411 v -14.263 c 0,-0.947 0.039,-1.537 0.118,-1.769 0.079,-0.233 0.243,-0.412 0.492,-0.536 0.249,-0.125 0.756,-0.195 1.52,-0.211 v -0.461 H 0.299 v 0.461 c 0.797,0.016 1.312,0.085 1.545,0.205 0.232,0.121 0.394,0.282 0.486,0.486 0.09,0.203 0.136,0.811 0.136,1.825 v 9.118 c 0,1.229 -0.041,2.018 -0.124,2.368 -0.058,0.265 -0.164,0.46 -0.318,0.584 C 1.871,-0.062 1.686,0 1.47,0 1.163,0 0.735,-0.129 0.187,-0.386 Z" /></g><g
           transform="translate(144.7139,8.2822)"
           id="g46"><path
             id="path48"
             style="fill:#2b2b2a;fill-opacity:1;fill-rule:nonzero;stroke:none"
             d="m 0,0 -1.184,-3.251 h -9.965 v 0.461 c 2.931,2.674 4.995,4.858 6.191,6.553 1.195,1.693 1.794,3.242 1.794,4.646 0,1.071 -0.328,1.951 -0.984,2.641 -0.657,0.689 -1.442,1.033 -2.355,1.033 -0.83,0 -1.576,-0.242 -2.236,-0.729 -0.66,-0.485 -1.148,-1.197 -1.464,-2.135 h -0.461 c 0.208,1.536 0.742,2.716 1.601,3.537 0.86,0.822 1.933,1.233 3.22,1.233 1.37,0 2.515,-0.44 3.432,-1.32 0.918,-0.881 1.377,-1.918 1.377,-3.114 0,-0.856 -0.199,-1.711 -0.598,-2.567 C -2.247,5.644 -3.243,4.219 -4.622,2.716 -6.689,0.457 -7.981,-0.905 -8.496,-1.37 h 4.41 c 0.897,0 1.525,0.033 1.887,0.099 0.361,0.067 0.687,0.202 0.977,0.406 0.291,0.203 0.544,0.492 0.761,0.865 z" /></g><g
           transform="translate(149.1357,13.0664)"
           id="g50"><path
             id="path52"
             style="fill:#2b2b2a;fill-opacity:1;fill-rule:nonzero;stroke:none"
             d="m 0,0 c 0,-2.326 0.286,-4.224 0.859,-5.693 0.474,-1.238 1.179,-1.857 2.119,-1.857 0.448,0 0.913,0.202 1.394,0.605 0.482,0.403 0.848,1.078 1.097,2.024 0.382,1.429 0.572,3.442 0.572,6.042 0,1.926 -0.199,3.533 -0.598,4.82 C 5.145,6.896 4.759,7.573 4.285,7.972 3.944,8.246 3.533,8.383 3.052,8.383 2.487,8.383 1.984,8.13 1.545,7.623 0.946,6.934 0.54,5.85 0.323,4.372 0.107,2.894 0,1.437 0,0 m -2.441,0.311 c 0,1.926 0.29,3.585 0.872,4.976 0.581,1.392 1.353,2.428 2.316,3.109 0.748,0.539 1.52,0.809 2.317,0.809 1.295,0 2.458,-0.66 3.488,-1.98 C 7.839,5.589 8.483,3.371 8.483,0.572 8.483,-1.388 8.2,-3.053 7.636,-4.423 7.071,-5.793 6.351,-6.787 5.475,-7.406 4.599,-8.024 3.754,-8.334 2.939,-8.334 c -1.611,0 -2.952,0.95 -4.023,2.853 -0.905,1.602 -1.357,3.533 -1.357,5.792" /></g><g
           transform="translate(161.8916,13.0664)"
           id="g54"><path
             id="path56"
             style="fill:#2b2b2a;fill-opacity:1;fill-rule:nonzero;stroke:none"
             d="m 0,0 c 0,-2.326 0.286,-4.224 0.859,-5.693 0.474,-1.238 1.18,-1.857 2.119,-1.857 0.448,0 0.913,0.202 1.394,0.605 0.482,0.403 0.848,1.078 1.097,2.024 0.382,1.429 0.573,3.442 0.573,6.042 0,1.926 -0.199,3.533 -0.599,4.82 C 5.145,6.896 4.759,7.573 4.285,7.972 3.944,8.246 3.533,8.383 3.052,8.383 2.487,8.383 1.984,8.13 1.545,7.623 0.947,6.934 0.54,5.85 0.324,4.372 0.108,2.894 0,1.437 0,0 m -2.441,0.311 c 0,1.926 0.291,3.585 0.872,4.976 0.581,1.392 1.353,2.428 2.316,3.109 0.748,0.539 1.521,0.809 2.317,0.809 1.296,0 2.458,-0.66 3.489,-1.98 1.287,-1.636 1.93,-3.854 1.93,-6.653 0,-1.96 -0.282,-3.625 -0.847,-4.995 C 7.071,-5.793 6.351,-6.787 5.475,-7.406 4.599,-8.024 3.754,-8.334 2.939,-8.334 c -1.61,0 -2.952,0.95 -4.023,2.853 -0.905,1.602 -1.357,3.533 -1.357,5.792" /></g><g
           transform="translate(173.5937,18.3633)"
           id="g58"><path
             id="path60"
             style="fill:#2b2b2a;fill-opacity:1;fill-rule:nonzero;stroke:none"
             d="m 0,0 v -2.484 c 0,-0.537 0.021,-0.891 0.065,-1.06 0.068,-0.281 0.234,-0.528 0.497,-0.741 0.264,-0.213 0.597,-0.319 1,-0.319 0.483,0 0.876,0.188 1.176,0.566 0.392,0.494 0.588,1.188 0.588,2.084 0,1.017 -0.222,1.799 -0.668,2.346 C 2.348,0.77 1.98,0.958 1.554,0.958 1.321,0.958 1.092,0.9 0.864,0.784 0.689,0.697 0.401,0.436 0,0 m -2.324,1.154 2.048,0.828 H 0 V 0.429 c 0.344,0.585 0.688,0.996 1.035,1.23 0.346,0.236 0.71,0.353 1.093,0.353 0.668,0 1.225,-0.262 1.67,-0.784 0.547,-0.64 0.821,-1.473 0.821,-2.499 0,-1.148 -0.33,-2.096 -0.988,-2.847 C 3.089,-4.732 2.406,-5.04 1.583,-5.04 1.225,-5.04 0.915,-4.989 0.653,-4.888 0.46,-4.815 0.242,-4.67 0,-4.452 V -6.479 C 0,-6.934 0.027,-7.223 0.083,-7.346 0.139,-7.47 0.236,-7.567 0.374,-7.641 0.512,-7.713 0.763,-7.749 1.126,-7.749 V -8.018 H -2.36 v 0.269 h 0.181 c 0.266,-0.005 0.494,0.046 0.683,0.152 0.092,0.054 0.163,0.14 0.214,0.258 0.051,0.119 0.076,0.42 0.076,0.904 v 6.289 c 0,0.431 -0.019,0.705 -0.058,0.821 -0.039,0.116 -0.1,0.204 -0.185,0.262 -0.085,0.058 -0.199,0.086 -0.345,0.086 -0.116,0 -0.264,-0.033 -0.443,-0.101 z" /></g><g
           transform="translate(180.8779,23.8535)"
           id="g62"><path
             id="path64"
             style="fill:#2b2b2a;fill-opacity:1;fill-rule:nonzero;stroke:none"
             d="M 0,0 C 0.203,0 0.376,-0.071 0.519,-0.214 0.662,-0.357 0.733,-0.53 0.733,-0.733 0.733,-0.937 0.662,-1.111 0.519,-1.256 0.376,-1.402 0.203,-1.474 0,-1.474 c -0.204,0 -0.378,0.072 -0.523,0.218 -0.145,0.145 -0.218,0.319 -0.218,0.523 0,0.203 0.071,0.376 0.215,0.519 C -0.384,-0.071 -0.209,0 0,0 m 0.603,-3.479 v -5.345 c 0,-0.416 0.03,-0.694 0.09,-0.831 0.061,-0.138 0.151,-0.241 0.269,-0.309 0.118,-0.068 0.335,-0.101 0.65,-0.101 v -0.262 H -1.62 v 0.262 c 0.324,0 0.543,0.031 0.654,0.093 0.112,0.064 0.199,0.167 0.265,0.313 0.065,0.145 0.097,0.424 0.097,0.835 v 2.564 c 0,0.721 -0.021,1.189 -0.064,1.402 -0.034,0.154 -0.088,0.262 -0.16,0.323 -0.072,0.06 -0.172,0.091 -0.298,0.091 -0.136,0 -0.3,-0.036 -0.494,-0.11 l -0.102,0.262 2.005,0.813 z" /></g></g></g></g></svg>